<mxfile host="app.diagrams.net" modified="2023-09-27T10:55:24.754Z" agent="Mozilla/5.0 (Windows NT 10.0; Win64; x64) AppleWebKit/537.36 (KHTML, like Gecko) Chrome/117.0.0.0 Safari/537.36" etag="SSpqfmM-_djVtZFDk_HL" version="21.8.2" type="github">
  <diagram name="Página-1" id="0_DiLKsLMHJAqkCnHoMm">
    <mxGraphModel dx="1765" dy="818" grid="1" gridSize="10" guides="1" tooltips="1" connect="1" arrows="1" fold="1" page="1" pageScale="1" pageWidth="827" pageHeight="1169" math="0" shadow="0">
      <root>
        <mxCell id="0" />
        <mxCell id="1" parent="0" />
        <mxCell id="f0Jf9Pf7vCraimB9YkaR-4" style="edgeStyle=orthogonalEdgeStyle;rounded=0;orthogonalLoop=1;jettySize=auto;html=1;entryX=0.5;entryY=1;entryDx=0;entryDy=0;" edge="1" parent="1" source="b8jXtvzzi0fBcoB_L3CN-16" target="b8jXtvzzi0fBcoB_L3CN-22">
          <mxGeometry relative="1" as="geometry" />
        </mxCell>
        <mxCell id="f0Jf9Pf7vCraimB9YkaR-5" style="edgeStyle=orthogonalEdgeStyle;rounded=0;orthogonalLoop=1;jettySize=auto;html=1;" edge="1" parent="1" source="b8jXtvzzi0fBcoB_L3CN-16" target="b8jXtvzzi0fBcoB_L3CN-27">
          <mxGeometry relative="1" as="geometry" />
        </mxCell>
        <mxCell id="f0Jf9Pf7vCraimB9YkaR-6" style="edgeStyle=orthogonalEdgeStyle;rounded=0;orthogonalLoop=1;jettySize=auto;html=1;" edge="1" parent="1" source="b8jXtvzzi0fBcoB_L3CN-16" target="b8jXtvzzi0fBcoB_L3CN-23">
          <mxGeometry relative="1" as="geometry" />
        </mxCell>
        <mxCell id="f0Jf9Pf7vCraimB9YkaR-7" style="edgeStyle=orthogonalEdgeStyle;rounded=0;orthogonalLoop=1;jettySize=auto;html=1;" edge="1" parent="1" source="b8jXtvzzi0fBcoB_L3CN-16" target="f0Jf9Pf7vCraimB9YkaR-2">
          <mxGeometry relative="1" as="geometry" />
        </mxCell>
        <mxCell id="f0Jf9Pf7vCraimB9YkaR-8" style="edgeStyle=orthogonalEdgeStyle;rounded=0;orthogonalLoop=1;jettySize=auto;html=1;entryX=1;entryY=0.5;entryDx=0;entryDy=0;" edge="1" parent="1" source="b8jXtvzzi0fBcoB_L3CN-16" target="b8jXtvzzi0fBcoB_L3CN-17">
          <mxGeometry relative="1" as="geometry" />
        </mxCell>
        <mxCell id="f0Jf9Pf7vCraimB9YkaR-9" style="edgeStyle=orthogonalEdgeStyle;rounded=0;orthogonalLoop=1;jettySize=auto;html=1;entryX=1;entryY=0.5;entryDx=0;entryDy=0;" edge="1" parent="1" source="b8jXtvzzi0fBcoB_L3CN-16" target="f0Jf9Pf7vCraimB9YkaR-3">
          <mxGeometry relative="1" as="geometry" />
        </mxCell>
        <mxCell id="f0Jf9Pf7vCraimB9YkaR-10" style="edgeStyle=orthogonalEdgeStyle;rounded=0;orthogonalLoop=1;jettySize=auto;html=1;entryX=1;entryY=0.5;entryDx=0;entryDy=0;" edge="1" parent="1" source="b8jXtvzzi0fBcoB_L3CN-16" target="f0Jf9Pf7vCraimB9YkaR-1">
          <mxGeometry relative="1" as="geometry">
            <Array as="points">
              <mxPoint x="300" y="585" />
              <mxPoint x="300" y="445" />
            </Array>
          </mxGeometry>
        </mxCell>
        <mxCell id="f0Jf9Pf7vCraimB9YkaR-11" style="edgeStyle=orthogonalEdgeStyle;rounded=0;orthogonalLoop=1;jettySize=auto;html=1;entryX=1;entryY=0.5;entryDx=0;entryDy=0;" edge="1" parent="1" source="b8jXtvzzi0fBcoB_L3CN-16" target="b8jXtvzzi0fBcoB_L3CN-18">
          <mxGeometry relative="1" as="geometry" />
        </mxCell>
        <mxCell id="f0Jf9Pf7vCraimB9YkaR-12" style="edgeStyle=orthogonalEdgeStyle;rounded=0;orthogonalLoop=1;jettySize=auto;html=1;entryX=0;entryY=0.5;entryDx=0;entryDy=0;" edge="1" parent="1">
          <mxGeometry relative="1" as="geometry">
            <mxPoint x="420" y="585" as="sourcePoint" />
            <mxPoint x="611.0000000000011" y="295" as="targetPoint" />
            <Array as="points">
              <mxPoint x="521" y="585" />
              <mxPoint x="521" y="295" />
            </Array>
          </mxGeometry>
        </mxCell>
        <mxCell id="f0Jf9Pf7vCraimB9YkaR-13" style="edgeStyle=orthogonalEdgeStyle;rounded=0;orthogonalLoop=1;jettySize=auto;html=1;entryX=0;entryY=0.5;entryDx=0;entryDy=0;" edge="1" parent="1">
          <mxGeometry relative="1" as="geometry">
            <mxPoint x="425" y="585" as="sourcePoint" />
            <mxPoint x="620.0000000000011" y="445" as="targetPoint" />
            <Array as="points">
              <mxPoint x="520" y="585" />
              <mxPoint x="520" y="445" />
            </Array>
          </mxGeometry>
        </mxCell>
        <mxCell id="f0Jf9Pf7vCraimB9YkaR-14" style="edgeStyle=orthogonalEdgeStyle;rounded=0;orthogonalLoop=1;jettySize=auto;html=1;entryX=0;entryY=0.5;entryDx=0;entryDy=0;" edge="1" parent="1" source="b8jXtvzzi0fBcoB_L3CN-16" target="b8jXtvzzi0fBcoB_L3CN-25">
          <mxGeometry relative="1" as="geometry">
            <Array as="points">
              <mxPoint x="520" y="585" />
              <mxPoint x="520" y="745" />
            </Array>
          </mxGeometry>
        </mxCell>
        <mxCell id="f0Jf9Pf7vCraimB9YkaR-15" style="edgeStyle=orthogonalEdgeStyle;rounded=0;orthogonalLoop=1;jettySize=auto;html=1;entryX=0;entryY=0.5;entryDx=0;entryDy=0;" edge="1" parent="1" source="b8jXtvzzi0fBcoB_L3CN-16" target="b8jXtvzzi0fBcoB_L3CN-26">
          <mxGeometry relative="1" as="geometry">
            <Array as="points">
              <mxPoint x="520" y="585" />
              <mxPoint x="520" y="895" />
            </Array>
          </mxGeometry>
        </mxCell>
        <mxCell id="b8jXtvzzi0fBcoB_L3CN-16" value="Usuário" style="shape=umlActor;verticalLabelPosition=bottom;verticalAlign=top;html=1;outlineConnect=0;" parent="1" vertex="1">
          <mxGeometry x="399" y="555" width="30" height="60" as="geometry" />
        </mxCell>
        <mxCell id="b8jXtvzzi0fBcoB_L3CN-17" value="Manter Categorias" style="ellipse;whiteSpace=wrap;html=1;" parent="1" vertex="1">
          <mxGeometry x="60" y="860" width="140" height="70" as="geometry" />
        </mxCell>
        <mxCell id="b8jXtvzzi0fBcoB_L3CN-18" value="Manter Transações Financeiras" style="ellipse;whiteSpace=wrap;html=1;" parent="1" vertex="1">
          <mxGeometry x="60" y="260" width="140" height="70" as="geometry" />
        </mxCell>
        <mxCell id="b8jXtvzzi0fBcoB_L3CN-21" value="Manter Contas" style="ellipse;whiteSpace=wrap;html=1;" parent="1" vertex="1">
          <mxGeometry x="620" y="260" width="140" height="70" as="geometry" />
        </mxCell>
        <mxCell id="b8jXtvzzi0fBcoB_L3CN-22" value="Efetuar Login" style="ellipse;whiteSpace=wrap;html=1;" parent="1" vertex="1">
          <mxGeometry x="344" y="260" width="140" height="70" as="geometry" />
        </mxCell>
        <mxCell id="b8jXtvzzi0fBcoB_L3CN-23" value="Efetuar Logout" style="ellipse;whiteSpace=wrap;html=1;" parent="1" vertex="1">
          <mxGeometry x="60" y="550" width="140" height="70" as="geometry" />
        </mxCell>
        <mxCell id="b8jXtvzzi0fBcoB_L3CN-24" value="Favoritar Categorias" style="ellipse;whiteSpace=wrap;html=1;" parent="1" vertex="1">
          <mxGeometry x="624" y="410" width="140" height="70" as="geometry" />
        </mxCell>
        <mxCell id="b8jXtvzzi0fBcoB_L3CN-25" value="Alterar Situação da Transação Financeira" style="ellipse;whiteSpace=wrap;html=1;" parent="1" vertex="1">
          <mxGeometry x="620" y="710" width="140" height="70" as="geometry" />
        </mxCell>
        <mxCell id="b8jXtvzzi0fBcoB_L3CN-26" value="Consultar o Extrato Mensal das Transações Financeiras" style="ellipse;whiteSpace=wrap;html=1;" parent="1" vertex="1">
          <mxGeometry x="620" y="860" width="140" height="70" as="geometry" />
        </mxCell>
        <mxCell id="b8jXtvzzi0fBcoB_L3CN-27" value="Observar Transação&amp;nbsp;Financeira" style="ellipse;whiteSpace=wrap;html=1;" parent="1" vertex="1">
          <mxGeometry x="620" y="550" width="140" height="70" as="geometry" />
        </mxCell>
        <mxCell id="f0Jf9Pf7vCraimB9YkaR-1" value="Duplicar Transação Financeira" style="ellipse;whiteSpace=wrap;html=1;" vertex="1" parent="1">
          <mxGeometry x="64" y="410" width="140" height="70" as="geometry" />
        </mxCell>
        <mxCell id="f0Jf9Pf7vCraimB9YkaR-2" value="Manter as Notas da Transação Financeira" style="ellipse;whiteSpace=wrap;html=1;" vertex="1" parent="1">
          <mxGeometry x="344" y="860" width="140" height="70" as="geometry" />
        </mxCell>
        <mxCell id="f0Jf9Pf7vCraimB9YkaR-3" value="Anexar Mídias nas Transações Financeiras" style="ellipse;whiteSpace=wrap;html=1;" vertex="1" parent="1">
          <mxGeometry x="60" y="710" width="140" height="70" as="geometry" />
        </mxCell>
      </root>
    </mxGraphModel>
  </diagram>
</mxfile>
